<svg width="100" height="101" viewBox="0 0 100 101" fill="none" xmlns="http://www.w3.org/2000/svg">
<g id="confirm icon" clip-path="url(#clip0_129_54)">
<path id="Vector" d="M49.9583 8.57727C26.9583 8.57727 8.33325 27.2439 8.33325 50.2439C8.33325 73.2439 26.9583 91.9106 49.9583 91.9106C72.9999 91.9106 91.6666 73.2439 91.6666 50.2439C91.6666 27.2439 72.9999 8.57727 49.9583 8.57727ZM49.9999 83.5773C31.5833 83.5773 16.6666 68.6606 16.6666 50.2439C16.6666 31.8273 31.5833 16.9106 49.9999 16.9106C68.4166 16.9106 83.3333 31.8273 83.3333 50.2439C83.3333 68.6606 68.4166 83.5773 49.9999 83.5773Z" fill="black"/>
<path id="Vector 2" d="M30.7871 49.318L47.4538 65.0587L69.213 35.4291" stroke="black" stroke-width="8"/>
</g>
<defs>
<clipPath id="clip0_129_54">
<rect width="100" height="100" fill="white" transform="translate(0 0.243927)"/>
</clipPath>
</defs>
</svg>
