<svg width="84" height="85" viewBox="0 0 84 85" fill="none" xmlns="http://www.w3.org/2000/svg">
<g id="error icon" clip-path="url(#clip0_129_170)">
<path id="Vector" d="M37.8333 54.7378H46.1666V63.0711H37.8333V54.7378ZM37.8333 21.4044H46.1666V46.4044H37.8333V21.4044ZM41.9583 0.571106C18.9583 0.571106 0.333252 19.2378 0.333252 42.2378C0.333252 65.2378 18.9583 83.9044 41.9583 83.9044C64.9999 83.9044 83.6666 65.2378 83.6666 42.2378C83.6666 19.2378 64.9999 0.571106 41.9583 0.571106ZM41.9999 75.5711C23.5833 75.5711 8.66659 60.6544 8.66659 42.2378C8.66659 23.8211 23.5833 8.90444 41.9999 8.90444C60.4166 8.90444 75.3333 23.8211 75.3333 42.2378C75.3333 60.6544 60.4166 75.5711 41.9999 75.5711Z" fill="black"/>
</g>
<defs>
<clipPath id="clip0_129_170">
<rect width="84" height="84" fill="white" transform="translate(0 0.493927)"/>
</clipPath>
</defs>
</svg>
